<svg xmlns="http://www.w3.org/2000/svg" width="382.067" height="377.864" viewBox="0 0 382.067 377.864">
  <path style="fill:#000" d="M93.832 377.709c-21.112-1.858-38.24-9.37-53.95-23.664-5.08-4.622-9.224-9.262-14.454-16.181C11.66 319.647 3.735 299.304.79 274.614c-.785-6.585-.79-6.7-.789-18.75.003-12.034.008-12.178.811-19.25 3.088-27.162 11.52-49.436 26.027-68.75 4.202-5.594 6.978-8.741 11.89-13.479 17.442-16.823 39.576-26.865 65.854-29.875 5.85-.67 10.164-.894 17.25-.894 9.42 0 16.454.707 24.524 2.466 2.82.615 3.248.657 3.133.31-.073-.222-.808-2.372-1.633-4.778-4.187-12.221-6.55-23.3-7.536-35.332-.432-5.27-.18-15.74.485-20.223 1.447-9.744 4.553-18.708 9.293-26.824 11.336-19.405 29.848-32.269 53.36-37.077C212.406.328 215.935.014 227.708 0c8.056-.01 11.212.083 14.75.434 23.78 2.357 41.102 9.522 53.015 21.929 10.091 10.51 15.863 23.818 18.161 41.875.522 4.103.544 5.271.632 33.812l.09 29.563h54.976v17.75h-55.028l.101 78.437c.072 55.82.184 79.52.389 82.188 1.086 14.195 2.866 22.98 6.152 30.37 2.643 5.944 6.677 10.315 11.136 12.067 2.737 1.075 4.1 1.263 8.153 1.125 11.535-.395 21.91-5.793 32.487-16.905l2.265-2.38 3.533 2.987c1.942 1.642 3.539 3.049 3.547 3.126.01.077-.962 1.315-2.157 2.75-16.583 19.923-33.949 32.172-52.226 36.84-4.974 1.27-10.298 1.895-16.134 1.895-16.34 0-27.51-5.106-34.278-15.67-4.183-6.53-7.249-19.946-8.558-37.455-.732-9.795-.872-26.123-.877-102.848v-76.598l-10.187.129c-13.124.166-16.41-.11-19.085-1.604-1.753-.979-2.074-2.279-1.236-4.993l.492-1.592 3.696-2.62c6.637-4.706 12.791-10.024 21.383-18.478l4.937-4.859v-10.644c0-16.29-.983-24.346-4.16-34.143-7.28-22.439-24.682-33.892-51.464-33.87-7.978.007-13.147.6-19.66 2.26-5.943 1.513-11.928 4.159-16.818 7.434-10.838 7.257-16.968 16.986-18.902 30.002-.625 4.201-.673 12.004-.105 16.998 1.433 12.613 5.504 26.432 12.315 41.8 1.289 3.228 1.01 3.115 3.833 4.632 11.49 6.172 20.256 13.867 24.914 21.869 2.144 3.682 3.66 7.467 4.592 11.455.745 3.19.8 3.74.815 8.17.016 4.73.012 4.76-.801 7.14-2.36 6.902-9.84 13.83-16.933 15.684-2.525.66-8.054.96-10.442.568-5.494-.903-10.021-3.568-14.239-8.38-2.43-2.773-4.1-5.546-5.127-8.512-.871-2.514-.981-3.274-1.309-9.048-.481-8.47-2.143-14.385-5.534-19.702-1.52-2.382-5.872-6.794-8.225-8.336-4.532-2.97-10.56-5.08-17.75-6.212-2.343-.368-4.284-.448-10.5-.43-7.485.023-7.703.038-11.875.825-18.364 3.466-32.456 14.023-43.75 32.775-8.038 13.347-12.957 28.758-14.804 46.378-.687 6.548-.612 22.714.134 29.326 2.29 20.27 8.313 37.366 18.691 53.049 4.014 6.065 7.612 10.522 12.222 15.138 11.714 11.732 24.718 18.367 40.907 20.874 4.318.668 14.628.946 18.775.505 24.96-2.652 47.668-18.625 68.178-47.955 1.274-1.821 2.374-3.312 2.444-3.312.113 0 7.341 4.198 7.53 4.374.043.04-1.181 2.587-2.72 5.661-12.237 24.456-26.382 43.31-42.746 56.98-12.74 10.64-27.745 18.024-43.11 21.215-7.002 1.453-10.677 1.812-19.376 1.892-4.33.04-8.38.027-9-.027z"/>
</svg>
